<svg width="38" height="14" viewBox="0 0 38 14" fill="none" xmlns="http://www.w3.org/2000/svg">
<path d="M4.17676 10.2227L8.65039 0.203125H11.5859L5.25781 13H3.31543L4.17676 10.2227ZM3.04297 0.203125L4.3877 10.4512L4.41406 13H2.55957L0.265625 0.203125H3.04297ZM15.5498 0.203125L13.335 13H10.7598L12.9834 0.203125H15.5498ZM22.7656 9.58984C22.8184 9.2793 22.792 9.01855 22.6865 8.80762C22.5869 8.59082 22.4346 8.40918 22.2295 8.2627C22.0303 8.11035 21.8047 7.98145 21.5527 7.87598C21.3066 7.77051 21.0605 7.67383 20.8145 7.58594C20.3633 7.41016 19.918 7.21094 19.4785 6.98828C19.0449 6.76562 18.6494 6.50195 18.292 6.19727C17.9346 5.88672 17.6562 5.52637 17.457 5.11621C17.2578 4.7002 17.1758 4.21387 17.2109 3.65723C17.252 3.02441 17.4307 2.47656 17.7471 2.01367C18.0635 1.55078 18.4648 1.17285 18.9512 0.879883C19.4434 0.581055 19.9766 0.361328 20.5508 0.220703C21.1309 0.0800781 21.6992 0.015625 22.2559 0.0273438C23.0527 0.0390625 23.7617 0.206055 24.3828 0.52832C25.0039 0.844727 25.4902 1.2959 25.8418 1.88184C26.1992 2.46191 26.3662 3.15918 26.3428 3.97363H23.7939C23.8174 3.58691 23.7676 3.25293 23.6445 2.97168C23.5273 2.68457 23.3369 2.46484 23.0732 2.3125C22.8154 2.1543 22.4844 2.06934 22.0801 2.05762C21.7344 2.05176 21.3945 2.10742 21.0605 2.22461C20.7324 2.33594 20.4482 2.51172 20.208 2.75195C19.9736 2.98633 19.8271 3.29102 19.7686 3.66602C19.7217 3.94141 19.7598 4.17871 19.8828 4.37793C20.0117 4.57715 20.1846 4.74707 20.4014 4.8877C20.624 5.02832 20.8584 5.14844 21.1045 5.24805C21.3564 5.3418 21.582 5.42676 21.7812 5.50293C22.2559 5.67285 22.7129 5.875 23.1523 6.10938C23.5977 6.34375 23.9902 6.62207 24.3301 6.94434C24.6699 7.26074 24.9307 7.63574 25.1123 8.06934C25.2939 8.49707 25.3672 8.99512 25.332 9.56348C25.2793 10.2139 25.1035 10.7705 24.8047 11.2334C24.5059 11.6904 24.1191 12.0654 23.6445 12.3584C23.1699 12.6455 22.6514 12.8564 22.0889 12.9912C21.5264 13.126 20.9551 13.1904 20.375 13.1846C19.7422 13.1729 19.1475 13.0732 18.5908 12.8857C18.0342 12.6982 17.5479 12.4287 17.1318 12.0771C16.7158 11.7197 16.3936 11.2832 16.165 10.7676C15.9424 10.2461 15.8398 9.65137 15.8574 8.9834L18.4326 8.99219C18.4092 9.34961 18.4355 9.66309 18.5117 9.93262C18.5938 10.1963 18.7227 10.4189 18.8984 10.6006C19.0801 10.7822 19.3027 10.9199 19.5664 11.0137C19.8359 11.1016 20.1494 11.1484 20.5068 11.1543C20.8525 11.1543 21.1865 11.1016 21.5088 10.9961C21.8311 10.8906 22.1064 10.7236 22.335 10.4951C22.5635 10.2607 22.707 9.95898 22.7656 9.58984ZM33.3477 2.52344L28.1973 13H25.3672L32.2051 0.203125H34.0156L33.3477 2.52344ZM34.3672 13L32.8027 2.25098L32.8994 0.203125H34.5957L37.0127 13H34.3672ZM35.0176 8.23633L34.6572 10.3018H28.0742L28.4346 8.23633H35.0176Z" fill="#2C0777"/>
</svg>
